<svg id="visual" viewBox="0 0 900 600" width="900" height="600" xmlns="http://www.w3.org/2000/svg" xmlns:xlink="http://www.w3.org/1999/xlink" version="1.1"><path d="M0 175L43 175L43 145L86 145L86 247L129 247L129 133L171 133L171 193L214 193L214 157L257 157L257 157L300 157L300 241L343 241L343 169L386 169L386 235L429 235L429 187L471 187L471 157L514 157L514 187L557 187L557 265L600 265L600 175L643 175L643 205L686 205L686 277L729 277L729 133L771 133L771 181L814 181L814 193L857 193L857 253L900 253L900 169L900 0L900 0L857 0L857 0L814 0L814 0L771 0L771 0L729 0L729 0L686 0L686 0L643 0L643 0L600 0L600 0L557 0L557 0L514 0L514 0L471 0L471 0L429 0L429 0L386 0L386 0L343 0L343 0L300 0L300 0L257 0L257 0L214 0L214 0L171 0L171 0L129 0L129 0L86 0L86 0L43 0L43 0L0 0Z" fill="#bea1e9"></path><path d="M0 349L43 349L43 427L86 427L86 385L129 385L129 367L171 367L171 421L214 421L214 367L257 367L257 391L300 391L300 367L343 367L343 403L386 403L386 403L429 403L429 463L471 463L471 421L514 421L514 433L557 433L557 427L600 427L600 361L643 361L643 355L686 355L686 409L729 409L729 373L771 373L771 391L814 391L814 427L857 427L857 445L900 445L900 409L900 167L900 251L857 251L857 191L814 191L814 179L771 179L771 131L729 131L729 275L686 275L686 203L643 203L643 173L600 173L600 263L557 263L557 185L514 185L514 155L471 155L471 185L429 185L429 233L386 233L386 167L343 167L343 239L300 239L300 155L257 155L257 155L214 155L214 191L171 191L171 131L129 131L129 245L86 245L86 143L43 143L43 173L0 173Z" fill="#8e72b6"></path><path d="M0 475L43 475L43 511L86 511L86 517L129 517L129 469L171 469L171 523L214 523L214 529L257 529L257 493L300 493L300 511L343 511L343 481L386 481L386 469L429 469L429 541L471 541L471 529L514 529L514 523L557 523L557 511L600 511L600 487L643 487L643 493L686 493L686 511L729 511L729 535L771 535L771 523L814 523L814 529L857 529L857 535L900 535L900 499L900 407L900 443L857 443L857 425L814 425L814 389L771 389L771 371L729 371L729 407L686 407L686 353L643 353L643 359L600 359L600 425L557 425L557 431L514 431L514 419L471 419L471 461L429 461L429 401L386 401L386 401L343 401L343 365L300 365L300 389L257 389L257 365L214 365L214 419L171 419L171 365L129 365L129 383L86 383L86 425L43 425L43 347L0 347Z" fill="#604685"></path><path d="M0 601L43 601L43 601L86 601L86 601L129 601L129 601L171 601L171 601L214 601L214 601L257 601L257 601L300 601L300 601L343 601L343 601L386 601L386 601L429 601L429 601L471 601L471 601L514 601L514 601L557 601L557 601L600 601L600 601L643 601L643 601L686 601L686 601L729 601L729 601L771 601L771 601L814 601L814 601L857 601L857 601L900 601L900 601L900 497L900 533L857 533L857 527L814 527L814 521L771 521L771 533L729 533L729 509L686 509L686 491L643 491L643 485L600 485L600 509L557 509L557 521L514 521L514 527L471 527L471 539L429 539L429 467L386 467L386 479L343 479L343 509L300 509L300 491L257 491L257 527L214 527L214 521L171 521L171 467L129 467L129 515L86 515L86 509L43 509L43 473L0 473Z" fill="#351e57"></path></svg>